<svg width="41" height="40" viewBox="0 0 41 40" fill="none" xmlns="http://www.w3.org/2000/svg">
<path id="Vector" d="M39.8761 7.88161C39.7394 7.71794 39.5683 7.5863 39.3751 7.49598C39.1819 7.40565 38.9712 7.35886 38.7579 7.3589H9.37679L8.48618 2.46691C8.36419 1.79546 8.01042 1.18812 7.48654 0.750781C6.96266 0.313437 6.3019 0.0738291 5.61946 0.0737305H2.33203C1.9456 0.0737305 1.575 0.227239 1.30176 0.500486C1.02851 0.773732 0.875 1.14433 0.875 1.53076C0.875 1.91719 1.02851 2.2878 1.30176 2.56104C1.575 2.83429 1.9456 2.9878 2.33203 2.9878H5.61036L10.2656 28.5387C10.4027 29.2965 10.7376 30.0045 11.2363 30.5913C10.548 31.2342 10.0511 32.0553 9.80089 32.9634C9.55066 33.8714 9.55682 34.8311 9.81869 35.7359C10.0806 36.6407 10.5879 37.4552 11.2845 38.0893C11.981 38.7234 12.8396 39.1521 13.7649 39.328C14.6903 39.5039 15.6463 39.4201 16.5269 39.0858C17.4075 38.7516 18.1784 38.18 18.754 37.4344C19.3296 36.6888 19.6874 35.7983 19.7878 34.8618C19.8882 33.9252 19.7273 32.9791 19.3229 32.1285H27.5952C27.2692 32.8109 27.1005 33.5577 27.1016 34.314C27.1016 35.3226 27.4007 36.3086 27.961 37.1472C28.5214 37.9858 29.3178 38.6395 30.2497 39.0254C31.1815 39.4114 32.2069 39.5124 33.1961 39.3156C34.1853 39.1189 35.094 38.6332 35.8072 37.92C36.5204 37.2068 37.0061 36.2981 37.2028 35.3089C37.3996 34.3197 37.2986 33.2943 36.9126 32.3625C36.5267 31.4306 35.873 30.6342 35.0344 30.0738C34.1958 29.5135 33.2098 29.2144 32.2012 29.2144H14.5656C14.2244 29.2143 13.894 29.0945 13.6321 28.8759C13.3702 28.6572 13.1933 28.3535 13.1323 28.0178L12.5549 24.8433H33.6819C34.7056 24.8431 35.6967 24.4837 36.4825 23.8277C37.2684 23.1717 37.799 22.2607 37.982 21.2535L40.1967 9.07637C40.2342 8.8659 40.2249 8.64976 40.1695 8.44328C40.1141 8.2368 40.0139 8.04504 39.8761 7.88161ZM32.2012 32.1285C32.6335 32.1285 33.056 32.2566 33.4154 32.4968C33.7748 32.7369 34.055 33.0783 34.2204 33.4776C34.3858 33.877 34.4291 34.3164 34.3448 34.7404C34.2604 35.1643 34.0523 35.5538 33.7466 35.8594C33.441 36.1651 33.0515 36.3732 32.6276 36.4576C32.2036 36.5419 31.7642 36.4986 31.3648 36.3332C30.9655 36.1678 30.6241 35.8876 30.384 35.5282C30.1438 35.1688 30.0157 34.7463 30.0157 34.314C30.0157 33.7344 30.2459 33.1785 30.6558 32.7686C31.0657 32.3587 31.6216 32.1285 32.2012 32.1285ZM14.7168 32.1285C15.1491 32.1285 15.5716 32.2566 15.931 32.4968C16.2905 32.7369 16.5706 33.0783 16.736 33.4776C16.9014 33.877 16.9447 34.3164 16.8604 34.7404C16.776 35.1643 16.5679 35.5538 16.2622 35.8594C15.9566 36.1651 15.5671 36.3732 15.1432 36.4576C14.7192 36.5419 14.2798 36.4986 13.8804 36.3332C13.4811 36.1678 13.1397 35.8876 12.8996 35.5282C12.6594 35.1688 12.5313 34.7463 12.5313 34.314C12.5313 33.7344 12.7615 33.1785 13.1714 32.7686C13.5813 32.3587 14.1372 32.1285 14.7168 32.1285Z" fill="#FFC72C"/>
</svg>
