<svg width="42" height="42" viewBox="0 0 42 42" fill="none" xmlns="http://www.w3.org/2000/svg">
<g filter="url(#filter0_d_97_362)">
<rect x="4" width="34" height="34" rx="17" fill="white"/>
<path d="M13.8906 22.6875L16.7031 21.375C17.7031 22.9844 19.0703 23.7891 20.8047 23.7891C21.4609 23.7891 22.0234 23.5859 22.4922 23.1797C22.9766 22.7734 23.2188 22.2266 23.2188 21.5391C23.2188 21.0547 23.0625 20.6484 22.75 20.3203C22.4375 19.9766 22.0781 19.7109 21.6719 19.5234C21.2656 19.3359 20.625 19.0625 19.75 18.7031C18.875 18.3281 18.1094 17.9688 17.4531 17.625C15.5156 16.5938 14.5469 15.0625 14.5469 13.0312C14.5469 12.3906 14.6719 11.7578 14.9219 11.1328C15.1875 10.4922 15.6641 9.875 16.3516 9.28125C17.0547 8.67188 17.9141 8.25781 18.9297 8.03906V5.92969H22.4453V8.08594C23.3828 8.19531 24.2812 8.625 25.1406 9.375C26.0156 10.125 26.6172 10.8984 26.9453 11.6953L24.0625 13.1016C23.2031 11.7422 22.0781 11.0625 20.6875 11.0625C20.0156 11.0625 19.4688 11.25 19.0469 11.625C18.625 12 18.4141 12.4766 18.4141 13.0547C18.4141 13.3516 18.4688 13.6172 18.5781 13.8516C18.7031 14.0859 18.8438 14.2812 19 14.4375C19.1719 14.5938 19.4297 14.7578 19.7734 14.9297C20.1328 15.1016 20.4688 15.25 20.7812 15.375C21.1094 15.5 21.5547 15.6797 22.1172 15.9141C22.6953 16.1328 23.2188 16.3438 23.6875 16.5469C25.9844 17.5781 27.1328 19.1328 27.1328 21.2109C27.1328 22.6484 26.7109 23.8672 25.8672 24.8672C25.0234 25.8516 23.8828 26.5 22.4453 26.8125V28.7812H18.9297V26.7656C17.9453 26.6562 16.9609 26.1953 15.9766 25.3828C14.9922 24.5703 14.2969 23.6719 13.8906 22.6875Z" fill="#FFC72C"/>
</g>
<defs>
<filter id="filter0_d_97_362" x="0" y="0" width="42" height="42" filterUnits="userSpaceOnUse" color-interpolation-filters="sRGB">
<feFlood flood-opacity="0" result="BackgroundImageFix"/>
<feColorMatrix in="SourceAlpha" type="matrix" values="0 0 0 0 0 0 0 0 0 0 0 0 0 0 0 0 0 0 127 0" result="hardAlpha"/>
<feOffset dy="4"/>
<feGaussianBlur stdDeviation="2"/>
<feComposite in2="hardAlpha" operator="out"/>
<feColorMatrix type="matrix" values="0 0 0 0 0 0 0 0 0 0 0 0 0 0 0 0 0 0 0.25 0"/>
<feBlend mode="normal" in2="BackgroundImageFix" result="effect1_dropShadow_97_362"/>
<feBlend mode="normal" in="SourceGraphic" in2="effect1_dropShadow_97_362" result="shape"/>
</filter>
</defs>
</svg>
