<svg width="80" height="80" viewBox="0 0 80 80" fill="none" xmlns="http://www.w3.org/2000/svg">
<rect x="4" y="4" width="72" height="72" rx="36" fill="white" stroke="#FFC72C" stroke-width="8"/>
<path d="M35.3063 23.1763L34.9438 24.1083L35.3063 23.1763C35.629 23.3018 35.9231 23.4904 36.1722 23.7304C36.4213 23.9704 36.6205 24.257 36.7595 24.5733C36.8984 24.8895 36.9745 25.2299 36.9841 25.5751C36.9937 25.9202 36.9365 26.2643 36.8155 26.5878C36.6945 26.9112 36.5117 27.2084 36.2767 27.462C36.2767 27.462 36.2766 27.4621 36.2765 27.4621L24.2054 40.4908L36.2727 53.5185C36.5107 53.7699 36.6967 54.0656 36.8211 54.3884C36.9464 54.7134 37.0068 55.0601 36.9994 55.4082C36.992 55.7564 36.9167 56.1001 36.7776 56.4196C36.6384 56.739 36.4379 57.0284 36.1865 57.2704C35.9352 57.5123 35.6381 57.702 35.3121 57.8273C34.986 57.9527 34.6381 58.011 34.2888 57.9983C33.9396 57.9857 33.5968 57.9024 33.2807 57.7539C32.9669 57.6066 32.686 57.3982 32.4535 57.1417L18.7089 42.3036C18.7088 42.3035 18.7087 42.3033 18.7085 42.3032C18.2516 41.8103 18 41.1615 18 40.4907C18 39.8197 18.2518 39.1708 18.7089 38.6779L32.4577 23.837L32.4579 23.8368C32.693 23.5831 32.9758 23.3781 33.2908 23.2343C33.6058 23.0905 33.9463 23.0111 34.2926 23.0011C34.639 22.9911 34.9835 23.0508 35.3063 23.1763Z" fill="#FFC72C" stroke="#FFC72C" stroke-width="2"/>
<path d="M56.3063 23.1763L55.9438 24.1083L56.3063 23.1763C56.629 23.3018 56.9231 23.4904 57.1722 23.7304C57.4213 23.9704 57.6205 24.257 57.7595 24.5733C57.8984 24.8895 57.9745 25.2299 57.9841 25.5751C57.9937 25.9202 57.9365 26.2643 57.8155 26.5878C57.6945 26.9112 57.5117 27.2084 57.2767 27.462C57.2767 27.462 57.2766 27.4621 57.2765 27.4621L45.2054 40.4908L57.2727 53.5185C57.5107 53.7699 57.6967 54.0656 57.8211 54.3884C57.9464 54.7134 58.0068 55.0601 57.9994 55.4082C57.992 55.7564 57.9167 56.1001 57.7776 56.4196C57.6384 56.739 57.4379 57.0284 57.1865 57.2704C56.9352 57.5123 56.6381 57.702 56.3121 57.8273C55.986 57.9527 55.6381 58.011 55.2888 57.9983C54.9396 57.9857 54.5968 57.9024 54.2807 57.7539C53.9669 57.6066 53.686 57.3982 53.4535 57.1417L39.7089 42.3036C39.7088 42.3035 39.7087 42.3033 39.7085 42.3032C39.2516 41.8103 39 41.1615 39 40.4907C39 39.8197 39.2518 39.1708 39.7089 38.6779L53.4577 23.837L53.4579 23.8368C53.693 23.5831 53.9758 23.3781 54.2908 23.2343C54.6058 23.0905 54.9463 23.0111 55.2926 23.0011C55.639 22.9911 55.9835 23.0508 56.3063 23.1763Z" fill="#FFC72C" stroke="#FFC72C" stroke-width="2"/>
</svg>
