<svg width="164" height="182" viewBox="0 0 164 182" fill="none" xmlns="http://www.w3.org/2000/svg">
<g clip-path="url(#clip0_220_269)">
<path fill-rule="evenodd" clip-rule="evenodd" d="M-1152.44 0.000471407C-1158.8 0.000471407 -1164 5.2036 -1164 11.563C-1164 17.9223 -1158.8 23.1255 -1152.44 23.1255H-1126.78L-1111.6 83.8286L-1096.43 144.532C-1093.86 154.822 -1084.64 161.875 -1074.03 161.875H-990C-990 161.917 -990 161.958 -990 162C-990 173.046 -981.046 182 -970 182C-958.954 182 -950 173.046 -950 162C-950 161.958 -950 161.917 -950 161.875L0.000366211 161.875C0.00012207 161.917 0 161.958 0 162C0 173.046 8.95435 182 20 182C31.0457 182 40 173.046 40 162C40 161.958 39.9999 161.917 39.9996 161.875H112.312C122.742 161.875 131.599 154.961 134.351 144.89L164.344 34.688H140.132L112.312 138.75L-1074.03 138.75L-1104.38 17.3442C-1105.63 12.3644 -1108.52 7.94834 -1112.58 4.80363C-1116.64 1.65893 -1121.63 -0.0324413 -1126.77 0.000471407H-1152.44Z" fill="#FFC72C"/>
<path d="M10 162C10 156.477 14.4772 152 20 152C25.5228 152 30 156.477 30 162C30 167.523 25.5228 172 20 172C14.4772 172 10 167.523 10 162Z" fill="#DA291C"/>
</g>
<defs>
<clipPath id="clip0_220_269">
<rect width="164" height="182" fill="white"/>
</clipPath>
</defs>
</svg>
