<svg width="28" height="28" viewBox="0 0 28 28" fill="none" xmlns="http://www.w3.org/2000/svg">
<path d="M11.6662 2.33331C10.2062 2.33409 8.76677 2.67738 7.46355 3.33558C6.16033 3.99379 5.0297 4.94854 4.16253 6.12312C3.29536 7.2977 2.71585 8.65934 2.47056 10.0986C2.22527 11.5378 2.32105 13.0146 2.7502 14.4101C3.17935 15.8056 3.9299 17.0809 4.94153 18.1337C5.95317 19.1864 7.19766 19.9871 8.57498 20.4714C9.95231 20.9558 11.4241 21.1102 12.8719 20.9224C14.3198 20.7346 15.7034 20.2097 16.9116 19.39L22.6796 25.1533C22.8398 25.3252 23.033 25.4632 23.2476 25.5588C23.4623 25.6544 23.694 25.7059 23.929 25.71C24.164 25.7142 24.3974 25.6709 24.6153 25.5829C24.8332 25.4949 25.0311 25.3639 25.1973 25.1977C25.3635 25.0316 25.4945 24.8336 25.5825 24.6157C25.6705 24.3978 25.7138 24.1644 25.7096 23.9294C25.7055 23.6945 25.654 23.4627 25.5584 23.2481C25.4627 23.0334 25.3248 22.8402 25.1529 22.68L19.3896 16.912C20.3431 15.5087 20.896 13.872 20.9889 12.178C21.0819 10.4839 20.7113 8.79659 19.9171 7.29739C19.1229 5.79819 17.935 4.54383 16.4812 3.66919C15.0275 2.79454 13.3628 2.3327 11.6662 2.33331ZM5.8329 11.6666C5.8329 10.1196 6.44748 8.63582 7.54145 7.54186C8.63541 6.44789 10.1191 5.83331 11.6662 5.83331C13.2133 5.83331 14.6971 6.44789 15.791 7.54186C16.885 8.63582 17.4996 10.1196 17.4996 11.6666C17.4996 13.2137 16.885 14.6975 15.791 15.7914C14.6971 16.8854 13.2133 17.5 11.6662 17.5C10.1191 17.5 8.63541 16.8854 7.54145 15.7914C6.44748 14.6975 5.8329 13.2137 5.8329 11.6666Z" fill="#292929"/>
</svg>
