<svg width="40" height="40" viewBox="0 0 40 40" fill="none" xmlns="http://www.w3.org/2000/svg">
<path d="M13.0007 3.55566H27.0007C32.334 3.55566 36.6673 7.83122 36.6673 13.0934V26.9068C36.6673 29.4364 35.6489 31.8623 33.836 33.651C32.0232 35.4397 29.5644 36.4446 27.0007 36.4446H13.0007C7.66732 36.4446 3.33398 32.169 3.33398 26.9068V13.0934C3.33398 10.5639 4.35243 8.1379 6.16529 6.34921C7.97814 4.56053 10.4369 3.55566 13.0007 3.55566ZM12.6673 6.84455C11.076 6.84455 9.5499 7.46827 8.42468 8.57848C7.29946 9.6887 6.66732 11.1945 6.66732 12.7646V27.2357C6.66732 30.5081 9.35065 33.1557 12.6673 33.1557H27.334C28.9253 33.1557 30.4514 32.532 31.5766 31.4217C32.7018 30.3115 33.334 28.8057 33.334 27.2357V12.7646C33.334 9.49211 30.6507 6.84455 27.334 6.84455H12.6673ZM28.7507 9.31122C29.3032 9.31122 29.8331 9.52779 30.2238 9.91328C30.6145 10.2988 30.834 10.8216 30.834 11.3668C30.834 11.9119 30.6145 12.4348 30.2238 12.8203C29.8331 13.2058 29.3032 13.4223 28.7507 13.4223C28.1981 13.4223 27.6682 13.2058 27.2775 12.8203C26.8868 12.4348 26.6673 11.9119 26.6673 11.3668C26.6673 10.8216 26.8868 10.2988 27.2775 9.91328C27.6682 9.52779 28.1981 9.31122 28.7507 9.31122ZM20.0007 11.7779C22.2108 11.7779 24.3304 12.6442 25.8932 14.1861C27.456 15.7281 28.334 17.8194 28.334 20.0001C28.334 22.1808 27.456 24.2721 25.8932 25.8141C24.3304 27.3561 22.2108 28.2223 20.0007 28.2223C17.7905 28.2223 15.6709 27.3561 14.1081 25.8141C12.5453 24.2721 11.6673 22.1808 11.6673 20.0001C11.6673 17.8194 12.5453 15.7281 14.1081 14.1861C15.6709 12.6442 17.7905 11.7779 20.0007 11.7779ZM20.0007 15.0668C18.6746 15.0668 17.4028 15.5865 16.4651 16.5117C15.5274 17.4369 15.0007 18.6917 15.0007 20.0001C15.0007 21.3085 15.5274 22.5633 16.4651 23.4885C17.4028 24.4137 18.6746 24.9334 20.0007 24.9334C21.3267 24.9334 22.5985 24.4137 23.5362 23.4885C24.4739 22.5633 25.0007 21.3085 25.0007 20.0001C25.0007 18.6917 24.4739 17.4369 23.5362 16.5117C22.5985 15.5865 21.3267 15.0668 20.0007 15.0668Z" fill="#292929"/>
</svg>
