<svg width="80" height="80" viewBox="0 0 80 80" fill="none" xmlns="http://www.w3.org/2000/svg">
<g id="octicon:x-circle-16" clip-path="url(#clip0_92_384)">
<rect id="Rectangle 234" width="80" height="80" rx="40" fill="white"/>
<path id="Vector" d="M11.7194 11.715H11.7144C19.216 4.21335 29.3904 -0.00103005 39.9994 -0.00102997C50.6083 -0.00102989 60.7827 4.21335 68.2844 11.715C75.786 19.2166 80.0004 29.3911 80.0004 40C80.0004 50.6089 75.786 60.7833 68.2844 68.285C63.3289 73.2969 57.1374 76.9108 50.3365 78.761C43.5356 80.6113 36.3666 80.6321 29.5551 78.8215C22.7435 77.0109 16.5311 73.4331 11.5465 68.4502C6.56197 63.4672 2.98216 57.256 1.16936 50.445C-0.640736 43.6322 -0.618313 36.4621 1.23435 29.6608C3.08702 22.8595 6.70413 16.6686 11.7194 11.715ZM17.0194 62.98C20.0532 66.0226 23.6603 68.4334 27.632 70.073C31.6036 71.7126 35.8609 72.5483 40.1576 72.5319C44.4543 72.5154 48.7051 71.6472 52.6641 69.9773C56.6231 68.3074 60.2116 65.8691 63.2221 62.8034C66.2327 59.7376 68.6054 56.1054 70.2031 52.1167C71.8008 48.1281 72.5916 43.8622 72.53 39.5659C72.4684 35.2696 71.5554 31.0282 69.844 27.087C68.1326 23.1458 65.6566 19.5831 62.5594 16.605C56.3888 10.6718 48.1266 7.41265 39.5671 7.53545C31.0077 7.65824 22.8424 11.1531 16.8446 17.2608C10.8468 23.3686 7.50087 31.5961 7.53359 40.1563C7.56632 48.7166 10.975 56.9183 17.0194 62.98ZM30.1494 24.85L39.9994 34.7L49.8494 24.85C50.3077 24.3564 50.8907 23.9955 51.537 23.8054C52.1832 23.6154 52.8688 23.6031 53.5214 23.77C54.174 23.9369 54.7695 24.2767 55.2452 24.7536C55.7209 25.2305 56.0592 25.8269 56.2244 26.48C56.3914 27.1319 56.3798 27.8167 56.1906 28.4626C56.0014 29.1084 55.6418 29.6913 55.1494 30.15L45.2994 40L55.1494 49.85C55.643 50.3084 56.0038 50.8914 56.1939 51.5376C56.384 52.1839 56.3962 52.8694 56.2294 53.522C56.0625 54.1746 55.7227 54.7702 55.2458 55.2459C54.7688 55.7216 54.1724 56.0598 53.5194 56.225C52.8675 56.3921 52.1826 56.3804 51.5368 56.1913C50.891 56.0021 50.3081 55.6424 49.8494 55.15L39.9994 45.3L30.1494 55.15C29.691 55.6436 29.108 56.0045 28.4617 56.1945C27.8155 56.3846 27.13 56.3969 26.4773 56.23C25.8247 56.0631 25.2292 55.7233 24.7535 55.2464C24.2778 54.7695 23.9395 54.1731 23.7744 53.52C23.6073 52.8681 23.6189 52.1833 23.8081 51.5374C23.9973 50.8916 24.357 50.3087 24.8494 49.85L34.6994 40L24.8494 30.15C24.1873 29.4387 23.8268 28.4984 23.8436 27.5268C23.8604 26.5553 24.2531 25.628 24.9394 24.94C25.6274 24.2538 26.5546 23.861 27.5262 23.8442C28.4978 23.8274 29.4381 24.188 30.1494 24.85Z" fill="#DA291C"/>
</g>
<defs>
<clipPath id="clip0_92_384">
<rect width="80" height="80" fill="white"/>
</clipPath>
</defs>
</svg>
