<svg width="24" height="24" viewBox="0 0 24 24" fill="none" xmlns="http://www.w3.org/2000/svg">
<path d="M10.8 11.1042V3.1875C10.8 2.87256 10.9264 2.57051 11.1515 2.34781C11.3765 2.12511 11.6817 2 12 2C12.3183 2 12.6235 2.12511 12.8485 2.34781C13.0736 2.57051 13.2 2.87256 13.2 3.1875V11.1042C13.2 11.4191 13.0736 11.7212 12.8485 11.9439C12.6235 12.1666 12.3183 12.2917 12 12.2917C11.6817 12.2917 11.3765 12.1666 11.1515 11.9439C10.9264 11.7212 10.8 11.4191 10.8 11.1042ZM17.455 2.98958C17.1885 2.82722 16.8685 2.77429 16.5632 2.84206C16.2579 2.90983 15.9914 3.09295 15.8205 3.35238C15.6496 3.61181 15.5879 3.92702 15.6486 4.23082C15.7092 4.53461 15.8873 4.80296 16.145 4.97865C18.341 6.39078 19.6 8.63021 19.6 11.1042C19.6 13.0988 18.7993 15.0118 17.374 16.4222C15.9487 17.8326 14.0156 18.625 12 18.625C9.98435 18.625 8.05127 17.8326 6.62599 16.4222C5.20071 15.0118 4.4 13.0988 4.4 11.1042C4.4 8.63021 5.659 6.39078 7.855 4.9737C8.09897 4.79275 8.26419 4.5267 8.31711 4.22956C8.37003 3.93243 8.30667 3.62651 8.13991 3.37393C7.97315 3.12136 7.71548 2.94106 7.41925 2.86968C7.12302 2.79829 6.81044 2.84116 6.545 2.98958C3.656 4.84802 2 7.80786 2 11.1042C2 13.7287 3.05357 16.2457 4.92893 18.1016C6.8043 19.9574 9.34784 21 12 21C14.6522 21 17.1957 19.9574 19.0711 18.1016C20.9464 16.2457 22 13.7287 22 11.1042C22 7.80786 20.344 4.84802 17.455 2.98958Z" fill="#FFC72C"/>
</svg>
