<svg width="24" height="24" viewBox="0 0 24 24" fill="none" xmlns="http://www.w3.org/2000/svg">
<path fill-rule="evenodd" clip-rule="evenodd" d="M22.0004 8.293C22.0004 11.769 19.1704 14.587 15.6804 14.587C15.0444 14.587 13.5944 14.441 12.8894 13.855L12.0074 14.733C11.4884 15.25 11.6284 15.402 11.8594 15.652C11.9554 15.757 12.0674 15.878 12.1544 16.051C12.1544 16.051 12.8894 17.075 12.1544 18.1C11.7134 18.685 10.4784 19.504 9.06845 18.1L8.77445 18.392C8.77445 18.392 9.65545 19.417 8.92144 20.442C8.48044 21.027 7.30445 21.612 6.27545 20.588L5.24745 21.612C4.54145 22.315 3.67945 21.905 3.33745 21.612L2.45445 20.734C1.63145 19.914 2.11145 19.026 2.45445 18.684L10.0964 11.074C10.0964 11.074 9.36145 9.904 9.36145 8.294C9.36145 4.818 12.1914 2 15.6814 2C19.1714 2 22.0004 4.818 22.0004 8.293ZM15.6814 10.489C16.2647 10.4901 16.8246 10.2594 17.2379 9.84782C17.6512 9.4362 17.8841 8.8773 17.8854 8.294C17.8849 8.00509 17.8275 7.71912 17.7165 7.4524C17.6054 7.18568 17.4429 6.94345 17.2383 6.73954C17.0336 6.53562 16.7908 6.37401 16.5237 6.26393C16.2565 6.15386 15.9704 6.09747 15.6814 6.098C15.3925 6.09747 15.1064 6.15386 14.8392 6.26393C14.5721 6.37401 14.3293 6.53562 14.1246 6.73954C13.92 6.94345 13.7575 7.18568 13.6464 7.4524C13.5354 7.71912 13.478 8.00509 13.4774 8.294C13.4788 8.8773 13.7117 9.4362 14.125 9.84782C14.5383 10.2594 15.0981 10.4901 15.6814 10.489Z" fill="#292929"/>
</svg>
