<svg width="1" height="182" viewBox="0 0 1 182" fill="none" xmlns="http://www.w3.org/2000/svg">
<g clip-path="url(#clip0_220_269)">
<path fill-rule="evenodd" clip-rule="evenodd" d="M-220.438 0.000471407C-226.797 0.000471407 -232 5.2036 -232 11.563C-232 17.9223 -226.797 23.1255 -220.438 23.1255H-194.78L-179.605 83.8286L-164.429 144.532C-161.862 154.822 -152.635 161.875 -142.032 161.875H-57.9996C-57.9999 161.917 -58 161.958 -58 162C-58 173.046 -49.0457 182 -38 182C-26.9543 182 -18 173.046 -18 162C-18 161.958 -18.0001 161.917 -18.0004 161.875L932 161.875C932 161.917 932 161.958 932 162C932 173.046 940.954 182 952 182C963.046 182 972 173.046 972 162C972 161.958 972 161.917 972 161.875H1044.31C1054.74 161.875 1063.6 154.961 1066.35 144.89L1096.34 34.688H1072.13L1044.31 138.75L-142.032 138.75L-172.384 17.3442C-173.634 12.3644 -176.52 7.94834 -180.579 4.80363C-184.638 1.65893 -189.634 -0.0324413 -194.769 0.000471407H-220.438Z" fill="#FFC72C"/>
</g>
<defs>
<clipPath id="clip0_220_269">
<rect width="1" height="182" fill="white"/>
</clipPath>
</defs>
</svg>
