<svg width="214" height="182" viewBox="0 0 214 182" fill="none" xmlns="http://www.w3.org/2000/svg">
<g clip-path="url(#clip0_220_269)">
<path fill-rule="evenodd" clip-rule="evenodd" d="M11.5625 0.000471407C5.20312 0.000471407 0 5.2036 0 11.563C0 17.9223 5.20312 23.1255 11.5625 23.1255H37.2197L52.3955 83.8286L67.5713 144.532C70.1381 154.822 79.365 161.875 89.9678 161.875H174C174 161.917 174 161.958 174 162C174 173.046 182.954 182 194 182C205.046 182 214 173.046 214 162C214 161.958 214 161.917 214 161.875L1164 161.875C1164 161.917 1164 161.958 1164 162C1164 173.046 1172.95 182 1184 182C1195.05 182 1204 173.046 1204 162C1204 161.958 1204 161.917 1204 161.875H1276.31C1286.74 161.875 1295.6 154.961 1298.35 144.89L1328.34 34.688H1304.13L1276.31 138.75L89.9678 138.75L59.6163 17.3442C58.3658 12.3644 55.48 7.94834 51.4212 4.80363C47.3624 1.65893 42.3656 -0.0324413 37.2312 0.000471407H11.5625Z" fill="#FFC72C"/>
<path d="M184 162C184 167.523 188.477 172 194 172C199.523 172 204 167.523 204 162C204 156.477 199.523 152 194 152C188.477 152 184 156.477 184 162Z" fill="#DA291C"/>
</g>
<defs>
<clipPath id="clip0_220_269">
<rect width="214" height="182" fill="white"/>
</clipPath>
</defs>
</svg>
