<svg width="35" height="56" viewBox="0 0 35 56" fill="none" xmlns="http://www.w3.org/2000/svg">
<g clip-path="url(#clip0_97_29)">
<path d="M17.5002 5.65625C17.5002 4.28873 18.0375 2.97722 18.9939 2.01023C19.9503 1.04325 21.2476 0.5 22.6002 0.5C23.9528 0.5 25.25 1.04325 26.2064 2.01023C27.1628 2.97722 27.7002 4.28873 27.7002 5.65625C27.7002 7.02377 27.1628 8.33528 26.2064 9.30227C25.25 10.2693 23.9528 10.8125 22.6002 10.8125C21.2476 10.8125 19.9503 10.2693 18.9939 9.30227C18.0375 8.33528 17.5002 7.02377 17.5002 5.65625ZM13.9408 21.9092C13.8345 21.9521 13.7389 21.9951 13.6327 22.0381L12.7827 22.4141C11.0402 23.1982 9.70141 24.6914 9.09578 26.5176L8.81953 27.3555C8.22453 29.1602 6.30141 30.127 4.51641 29.5254C2.73141 28.9238 1.77516 26.9795 2.37016 25.1748L2.64641 24.3369C3.85766 20.6738 6.53516 17.6875 10.0202 16.1191L10.8702 15.7432C13.0802 14.7549 15.4708 14.2393 17.8933 14.2393C22.632 14.2393 26.9033 17.1182 28.7202 21.5332L30.3564 25.4971L32.6302 26.6465C34.3089 27.4951 34.9889 29.5576 34.1495 31.2549C33.3102 32.9521 31.2702 33.6396 29.5914 32.791L26.7439 31.3623C25.6495 30.8037 24.7889 29.8799 24.3214 28.7305L23.3014 26.2598L21.2508 33.2959L26.5102 39.0967C27.0839 39.7305 27.4877 40.4932 27.7002 41.3311L30.1439 51.2246C30.6008 53.0615 29.4958 54.9307 27.6683 55.3926C25.8408 55.8545 24.0027 54.7373 23.5458 52.8896L21.2083 43.4258L13.6964 35.1436C12.1239 33.4141 11.5395 30.9971 12.1345 28.7305L13.9302 21.9092H13.9408ZM7.79953 43.2539L10.4558 36.5508C10.6789 36.873 10.9339 37.1738 11.1995 37.4746L15.5239 42.2441L13.9833 46.1328C13.7283 46.7773 13.3458 47.3682 12.857 47.8623L6.30141 54.4902C4.97328 55.833 2.81641 55.833 1.48828 54.4902C0.160156 53.1475 0.160156 50.9668 1.48828 49.624L7.79953 43.2539Z" fill="#292929"/>
</g>
<defs>
<clipPath id="clip0_97_29">
<rect width="34" height="55" fill="white" transform="translate(0.5 0.5)"/>
</clipPath>
</defs>
</svg>
