<svg width="36" height="36" viewBox="0 0 36 36" fill="none" xmlns="http://www.w3.org/2000/svg">
<g clip-path="url(#clip0_146_946)">
<path d="M34.9762 14.7555C35.1861 15.9636 35.2908 17.1877 35.289 18.414C35.289 23.8905 33.3315 28.521 29.925 31.6552H29.9295C26.9505 34.407 22.8555 36 18 36C13.2261 36 8.64773 34.1035 5.27208 30.7279C1.89642 27.3522 0 22.7739 0 18C0 13.2261 1.89642 8.6477 5.27208 5.27205C8.64773 1.89639 13.2261 -3.29582e-05 18 -3.29582e-05C22.4684 -0.0523642 26.7836 1.62634 30.042 4.68447L24.903 9.82347C23.0454 8.05266 20.5661 7.08295 18 7.12347C13.3043 7.12347 9.315 10.2915 7.893 14.5575C7.13904 16.7929 7.13904 19.2138 7.893 21.4492H7.89975C9.3285 25.7085 13.311 28.8765 18.0068 28.8765C20.4323 28.8765 22.5158 28.2555 24.1313 27.1575H24.1245C25.0625 26.536 25.865 25.731 26.4833 24.7909C27.1016 23.8508 27.5231 22.7952 27.7222 21.6877H18V14.7577L34.9762 14.7555Z" fill="white"/>
</g>
<defs>
<clipPath id="clip0_146_946">
<rect width="36" height="36" fill="white"/>
</clipPath>
</defs>
</svg>
