<svg width="48" height="48" viewBox="0 0 48 48" fill="none" xmlns="http://www.w3.org/2000/svg">
<path d="M24 6C35.6 6 45.002 13.328 45.002 22.37C45.002 31.41 35.6 38.738 24.002 38.738C22.8471 38.7386 21.6934 38.6651 20.548 38.518L11.732 44.284C10.73 44.814 10.376 44.756 10.788 43.458L12.572 36.102C6.81195 33.182 3.00195 28.122 3.00195 22.37C3.00195 13.33 12.402 6 24.002 6H24ZM35.816 22.12L38.756 19.272C38.9256 19.0958 39.0202 18.8607 39.0199 18.6161C39.0197 18.3715 38.9244 18.1366 38.7544 17.9608C38.5843 17.785 38.3526 17.6821 38.1082 17.6738C37.8638 17.6654 37.6256 17.7523 37.444 17.916L33.588 21.648V18.564C33.588 18.3136 33.4885 18.0735 33.3115 17.8965C33.1344 17.7195 32.8943 17.62 32.644 17.62C32.3936 17.62 32.1535 17.7195 31.9764 17.8965C31.7994 18.0735 31.7 18.3136 31.7 18.564V23.678C31.6647 23.8239 31.6647 23.9761 31.7 24.122V27C31.7 27.2504 31.7994 27.4905 31.9764 27.6675C32.1535 27.8445 32.3936 27.944 32.644 27.944C32.8943 27.944 33.1344 27.8445 33.3115 27.6675C33.4885 27.4905 33.588 27.2504 33.588 27V24.274L34.442 23.448L37.298 27.514C37.3693 27.6155 37.4599 27.702 37.5646 27.7685C37.6693 27.835 37.7861 27.8802 37.9083 27.9016C38.0305 27.9229 38.1557 27.92 38.2768 27.893C38.3979 27.8659 38.5124 27.8153 38.614 27.744C38.7155 27.6727 38.8019 27.5821 38.8684 27.4774C38.9349 27.3726 38.9801 27.2558 39.0015 27.1336C39.0229 27.0114 39.0199 26.8862 38.9929 26.7651C38.9659 26.6441 38.9153 26.5295 38.844 26.428L35.816 22.118V22.12ZM29.9 25.968H26.98V18.594C26.9688 18.3514 26.8645 18.1225 26.6889 17.9547C26.5133 17.787 26.2798 17.6934 26.037 17.6934C25.7941 17.6934 25.5606 17.787 25.385 17.9547C25.2094 18.1225 25.1051 18.3514 25.094 18.594V26.912C25.094 27.432 25.514 27.856 26.036 27.856H29.9C30.1503 27.856 30.3904 27.7565 30.5675 27.5795C30.7445 27.4025 30.844 27.1624 30.844 26.912C30.844 26.6616 30.7445 26.4215 30.5675 26.2445C30.3904 26.0675 30.1503 25.968 29.9 25.968ZM18.186 23.786L19.578 20.37L20.854 23.784L18.186 23.786ZM23.232 24.76L23.236 24.728C23.2355 24.4902 23.1447 24.2614 22.982 24.088L20.89 18.488C20.8023 18.2211 20.6352 17.9874 20.4111 17.818C20.1871 17.6486 19.9166 17.5516 19.636 17.54C19.3532 17.5388 19.0768 17.6236 18.8435 17.7833C18.6102 17.943 18.4311 18.17 18.33 18.434L15.006 26.584C14.9113 26.8158 14.9125 27.0757 15.0095 27.3066C15.1065 27.5374 15.2912 27.7203 15.523 27.815C15.7548 27.9097 16.0147 27.9084 16.2455 27.8114C16.4764 27.7145 16.6593 27.5298 16.754 27.298L17.418 25.672H21.558L22.154 27.272C22.1946 27.3916 22.2589 27.5018 22.3429 27.5961C22.4269 27.6904 22.529 27.7669 22.6431 27.8211C22.7573 27.8752 22.8811 27.9059 23.0073 27.9113C23.1335 27.9167 23.2595 27.8967 23.3779 27.8526C23.4962 27.8084 23.6045 27.7409 23.6963 27.6541C23.7881 27.5673 23.8615 27.463 23.9122 27.3473C23.963 27.2316 23.99 27.107 23.9916 26.9806C23.9933 26.8543 23.9696 26.729 23.922 26.612L23.232 24.76ZM16.588 18.604C16.588 18.354 16.4888 18.1142 16.3122 17.9372C16.1356 17.7602 15.896 17.6605 15.646 17.66H9.15595C8.90559 17.66 8.66548 17.7595 8.48844 17.9365C8.31141 18.1135 8.21195 18.3536 8.21195 18.604C8.21195 18.8544 8.31141 19.0945 8.48844 19.2715C8.66548 19.4485 8.90559 19.548 9.15595 19.548H11.476V27.02C11.476 27.2704 11.5754 27.5105 11.7524 27.6875C11.9295 27.8645 12.1696 27.964 12.42 27.964C12.6703 27.964 12.9104 27.8645 13.0875 27.6875C13.2645 27.5105 13.364 27.2704 13.364 27.02V19.548H15.644C15.8943 19.548 16.1344 19.4485 16.3115 19.2715C16.4885 19.0945 16.588 18.8544 16.588 18.604Z" fill="#292929"/>
</svg>
