<svg width="40" height="40" viewBox="0 0 40 40" fill="none" xmlns="http://www.w3.org/2000/svg">
<path d="M16.6673 25L25.3173 20L16.6673 15V25ZM35.934 11.95C36.1507 12.7334 36.3007 13.7834 36.4007 15.1167C36.5173 16.45 36.5673 17.6 36.5673 18.6L36.6673 20C36.6673 23.65 36.4007 26.3334 35.934 28.05C35.5173 29.55 34.5507 30.5167 33.0507 30.9334C32.2673 31.15 30.834 31.3 28.634 31.4C26.4673 31.5167 24.484 31.5667 22.6507 31.5667L20.0007 31.6667C13.0173 31.6667 8.66732 31.4 6.95065 30.9334C5.45065 30.5167 4.48398 29.55 4.06732 28.05C3.85065 27.2667 3.70065 26.2167 3.60065 24.8834C3.48398 23.55 3.43398 22.4 3.43398 21.4L3.33398 20C3.33398 16.35 3.60065 13.6667 4.06732 11.95C4.48398 10.45 5.45065 9.48337 6.95065 9.06671C7.73398 8.85004 9.16732 8.70004 11.3673 8.60004C13.534 8.48337 15.5173 8.43337 17.3507 8.43337L20.0007 8.33337C26.984 8.33337 31.334 8.60004 33.0507 9.06671C34.5507 9.48337 35.5173 10.45 35.934 11.95Z" fill="#292929"/>
</svg>
