<svg width="60" height="61" viewBox="0 0 60 61" fill="none" xmlns="http://www.w3.org/2000/svg">
<g clip-path="url(#clip0_347_213)">
<path d="M47.5 13.25C48.163 13.25 48.7989 12.9866 49.2678 12.5178C49.7366 12.0489 50 11.413 50 10.75C50 10.087 49.7366 9.45107 49.2678 8.98223C48.7989 8.51339 48.163 8.25 47.5 8.25H12.5C11.837 8.25 11.2011 8.51339 10.7322 8.98223C10.2634 9.45107 10 10.087 10 10.75C10 11.413 10.2634 12.0489 10.7322 12.5178C11.2011 12.9866 11.837 13.25 12.5 13.25H47.5ZM17.625 32.5075C17.8572 32.7399 18.1329 32.9243 18.4364 33.0502C18.7399 33.176 19.0652 33.2407 19.3938 33.2407C19.7223 33.2407 20.0476 33.176 20.3511 33.0502C20.6546 32.9243 20.9303 32.7399 21.1625 32.5075L27.5 26.1675V50.75C27.5 51.413 27.7634 52.0489 28.2322 52.5178C28.7011 52.9866 29.337 53.25 30 53.25C30.663 53.25 31.2989 52.9866 31.7678 52.5178C32.2366 52.0489 32.5 51.413 32.5 50.75V26.1675L38.84 32.5075C39.3091 32.9763 39.9452 33.2395 40.6084 33.2393C41.2716 33.239 41.9075 32.9754 42.3763 32.5063C42.845 32.0371 43.1082 31.401 43.108 30.7379C43.1078 30.0747 42.8441 29.4388 42.375 28.97L31.7675 18.365C31.2987 17.8963 30.6629 17.633 30 17.633C29.3371 17.633 28.7013 17.8963 28.2325 18.365L17.625 28.97C17.3926 29.2022 17.2082 29.4779 17.0824 29.7814C16.9565 30.0849 16.8918 30.4102 16.8918 30.7387C16.8918 31.0673 16.9565 31.3926 17.0824 31.6961C17.2082 31.9996 17.3926 32.2753 17.625 32.5075Z" fill="#FFC72C"/>
</g>
<defs>
<clipPath id="clip0_347_213">
<rect width="60" height="60" fill="white" transform="translate(0 0.75)"/>
</clipPath>
</defs>
</svg>
