<svg width="41" height="40" viewBox="0 0 41 40" fill="none" xmlns="http://www.w3.org/2000/svg">
<g clip-path="url(#clip0_97_240)">
<rect x="0.828125" width="40" height="40" rx="20" fill="white"/>
<path d="M6.6878 5.85753H6.6853C10.4361 2.1067 15.5233 -0.000488321 20.8278 -0.000488281C26.1323 -0.000488242 31.2195 2.1067 34.9703 5.85753C38.7211 9.60835 40.8283 14.6956 40.8283 20C40.8283 25.3045 38.7211 30.3917 34.9703 34.1425C32.4926 36.6485 29.3968 38.4554 25.9964 39.3805C22.5959 40.3057 19.0114 40.3161 15.6057 39.4108C12.1999 38.5055 9.09367 36.7166 6.60139 34.2251C4.10911 31.7336 2.3192 28.628 1.4128 25.2225C0.507757 21.8161 0.518968 18.2311 1.4453 14.8304C2.37164 11.4298 4.18019 8.3343 6.6878 5.85753ZM9.3378 31.49C10.8547 33.0113 12.6583 34.2167 14.6441 35.0365C16.6299 35.8563 18.7586 36.2742 20.9069 36.266C23.0553 36.2577 25.1807 35.8236 27.1602 34.9887C29.1397 34.1537 30.9339 32.9346 32.4392 31.4017C33.9445 29.8688 35.1308 28.0527 35.9297 26.0584C36.7285 24.0641 37.1239 21.9311 37.0931 19.783C37.0623 17.6348 36.6058 15.5141 35.7501 13.5435C34.8944 11.5729 33.6564 9.79158 32.1078 8.30253C29.0225 5.33592 24.8914 3.70635 20.6117 3.76775C16.332 3.82915 12.2493 5.57656 9.25041 8.63045C6.2515 11.6843 4.57856 15.7981 4.59492 20.0782C4.61128 24.3583 6.31564 28.4592 9.3378 31.49Z" fill="#FFC72C"/>
<path d="M20.8274 17.35L15.9024 12.425C15.5467 12.094 15.0766 11.9137 14.5908 11.9221C14.105 11.9305 13.6414 12.1269 13.2974 12.47C12.9543 12.814 12.7579 13.2777 12.7495 13.7634C12.7411 14.2492 12.9214 14.7194 13.2524 15.075L18.1774 20L13.2524 24.925C13.0062 25.1544 12.8263 25.4458 12.7318 25.7687C12.6372 26.0917 12.6313 26.4341 12.7149 26.76C12.7975 27.0865 12.9666 27.3848 13.2044 27.6232C13.4423 27.8617 13.7401 28.0316 14.0664 28.115C14.3927 28.1985 14.7355 28.1923 15.0586 28.0973C15.3817 28.0023 15.6732 27.8218 15.9024 27.575L20.8274 22.65L25.7524 27.575C25.9817 27.8212 26.2732 28.0011 26.5961 28.0956C26.919 28.1902 27.2614 28.1961 27.5874 28.1125C27.9139 28.0299 28.2121 27.8608 28.4506 27.623C28.6891 27.3851 28.8589 27.0873 28.9424 26.761C29.0258 26.4347 29.0197 26.092 28.9247 25.7688C28.8296 25.4457 28.6492 25.1542 28.4024 24.925L23.4774 20L28.4024 15.075C28.6486 14.8457 28.8284 14.5542 28.923 14.2313C29.0176 13.9084 29.0234 13.566 28.9399 13.24C28.8573 12.9135 28.6882 12.6153 28.4503 12.3768C28.2125 12.1384 27.9147 11.9685 27.5884 11.885C27.2621 11.8016 26.9193 11.8077 26.5962 11.9027C26.2731 11.9978 25.9816 12.1782 25.7524 12.425L20.8274 17.35Z" fill="#DA291C"/>
</g>
<defs>
<clipPath id="clip0_97_240">
<rect x="0.828125" width="40" height="40" rx="20" fill="white"/>
</clipPath>
</defs>
</svg>
