<svg width="28" height="30" viewBox="0 0 28 30" fill="none" xmlns="http://www.w3.org/2000/svg">
<g filter="url(#filter0_d_558_214)">
<path d="M12.875 12V4.5C12.875 4.20163 12.9935 3.91548 13.2045 3.7045C13.4155 3.49353 13.7016 3.375 14 3.375C14.2984 3.375 14.5845 3.49353 14.7955 3.7045C15.0065 3.91548 15.125 4.20163 15.125 4.5V12C15.125 12.2984 15.0065 12.5845 14.7955 12.7955C14.5845 13.0065 14.2984 13.125 14 13.125C13.7016 13.125 13.4155 13.0065 13.2045 12.7955C12.9935 12.5845 12.875 12.2984 12.875 12ZM19.1141 4.3125C18.8643 4.15868 18.5642 4.10853 18.278 4.17274C17.9917 4.23694 17.7419 4.41043 17.5817 4.6562C17.4215 4.90197 17.3637 5.2006 17.4205 5.4884C17.4774 5.77621 17.6444 6.03043 17.8859 6.19687C19.9447 7.53469 21.125 9.65625 21.125 12C21.125 13.8897 20.3743 15.7019 19.0381 17.0381C17.7019 18.3743 15.8897 19.125 14 19.125C12.1103 19.125 10.2981 18.3743 8.96186 17.0381C7.62567 15.7019 6.875 13.8897 6.875 12C6.875 9.65625 8.05531 7.53469 10.1141 6.19219C10.3428 6.02077 10.4977 5.76871 10.5473 5.48722C10.5969 5.20573 10.5375 4.9159 10.3812 4.67662C10.2248 4.43734 9.98326 4.26653 9.70555 4.1989C9.42784 4.13127 9.13479 4.17189 8.88594 4.3125C6.1775 6.07313 4.625 8.87719 4.625 12C4.625 14.4864 5.61272 16.871 7.37087 18.6291C9.12903 20.3873 11.5136 21.375 14 21.375C16.4864 21.375 18.871 20.3873 20.6291 18.6291C22.3873 16.871 23.375 14.4864 23.375 12C23.375 8.87719 21.8225 6.07313 19.1141 4.3125Z" fill="black"/>
</g>
<defs>
<filter id="filter0_d_558_214" x="-2" y="0" width="32" height="32" filterUnits="userSpaceOnUse" color-interpolation-filters="sRGB">
<feFlood flood-opacity="0" result="BackgroundImageFix"/>
<feColorMatrix in="SourceAlpha" type="matrix" values="0 0 0 0 0 0 0 0 0 0 0 0 0 0 0 0 0 0 127 0" result="hardAlpha"/>
<feOffset dy="4"/>
<feGaussianBlur stdDeviation="2"/>
<feComposite in2="hardAlpha" operator="out"/>
<feColorMatrix type="matrix" values="0 0 0 0 0 0 0 0 0 0 0 0 0 0 0 0 0 0 0.25 0"/>
<feBlend mode="normal" in2="BackgroundImageFix" result="effect1_dropShadow_558_214"/>
<feBlend mode="normal" in="SourceGraphic" in2="effect1_dropShadow_558_214" result="shape"/>
</filter>
</defs>
</svg>
