<svg width="49" height="48" viewBox="0 0 49 48" fill="none" xmlns="http://www.w3.org/2000/svg">
<path d="M42.4794 11.0381C42.3386 10.8696 42.1625 10.7341 41.9636 10.6411C41.7646 10.5481 41.5477 10.5 41.3281 10.5H11.0806L10.1638 5.46375C10.0382 4.7725 9.67396 4.14726 9.13463 3.69702C8.5953 3.24678 7.91506 3.0001 7.2125 3H3.82812C3.4303 3 3.04877 3.15804 2.76746 3.43934C2.48616 3.72064 2.32813 4.10218 2.32812 4.5C2.32812 4.89782 2.48616 5.27936 2.76746 5.56066C3.04877 5.84196 3.4303 6 3.82812 6H7.20312L11.9956 32.3044C12.1368 33.0845 12.4816 33.8135 12.995 34.4175C12.2863 35.0794 11.7748 35.9247 11.5172 36.8595C11.2596 37.7944 11.266 38.7823 11.5356 39.7138C11.8051 40.6453 12.3274 41.4839 13.0445 42.1366C13.7616 42.7894 14.6455 43.2308 15.5982 43.4119C16.5508 43.5929 17.535 43.5067 18.4416 43.1625C19.3482 42.8184 20.1418 42.23 20.7343 41.4624C21.3269 40.6948 21.6953 39.7781 21.7987 38.8139C21.902 37.8497 21.7364 36.8758 21.32 36H29.8363C29.5007 36.7025 29.327 37.4714 29.3281 38.25C29.3281 39.2884 29.636 40.3034 30.2129 41.1667C30.7898 42.0301 31.6097 42.703 32.569 43.1004C33.5283 43.4977 34.5839 43.6017 35.6023 43.3991C36.6208 43.1966 37.5562 42.6965 38.2904 41.9623C39.0247 41.2281 39.5247 40.2926 39.7272 39.2742C39.9298 38.2558 39.8259 37.2002 39.4285 36.2409C39.0311 35.2816 38.3582 34.4617 37.4949 33.8848C36.6315 33.3079 35.6165 33 34.5781 33H16.4225C16.0712 32.9999 15.7311 32.8766 15.4614 32.6515C15.1918 32.4264 15.0097 32.1137 14.9469 31.7681L14.3525 28.5H36.1025C37.1563 28.4998 38.1767 28.1298 38.9857 27.4545C39.7947 26.7791 40.341 25.8412 40.5294 24.8044L42.8094 12.2681C42.848 12.0514 42.8384 11.8289 42.7814 11.6164C42.7244 11.4038 42.6212 11.2064 42.4794 11.0381ZM34.5781 36C35.0231 36 35.4581 36.132 35.8282 36.3792C36.1982 36.6264 36.4866 36.9778 36.6569 37.389C36.8271 37.8001 36.8717 38.2525 36.7849 38.689C36.6981 39.1254 36.4838 39.5263 36.1691 39.841C35.8544 40.1557 35.4535 40.3699 35.0171 40.4568C34.5806 40.5436 34.1282 40.499 33.7171 40.3287C33.306 40.1584 32.9546 39.87 32.7073 39.5C32.4601 39.13 32.3281 38.695 32.3281 38.25C32.3281 37.6533 32.5652 37.081 32.9871 36.659C33.4091 36.2371 33.9814 36 34.5781 36ZM16.5781 36C17.0231 36 17.4581 36.132 17.8282 36.3792C18.1982 36.6264 18.4866 36.9778 18.6569 37.389C18.8272 37.8001 18.8717 38.2525 18.7849 38.689C18.6981 39.1254 18.4838 39.5263 18.1691 39.841C17.8544 40.1557 17.4535 40.3699 17.0171 40.4568C16.5806 40.5436 16.1282 40.499 15.7171 40.3287C15.306 40.1584 14.9546 39.87 14.7073 39.5C14.4601 39.13 14.3281 38.695 14.3281 38.25C14.3281 37.6533 14.5652 37.081 14.9871 36.659C15.4091 36.2371 15.9814 36 16.5781 36Z" fill="#292929"/>
</svg>
