<svg width="61" height="60" viewBox="0 0 61 60" fill="none" xmlns="http://www.w3.org/2000/svg">
<path d="M40.5 2.5C41.163 2.5 41.7989 2.76339 42.2678 3.23223C42.7366 3.70107 43 4.33696 43 5V7.5H55.5V22.5H50.4525L57.3175 41.3625C57.8068 42.6315 58.0321 43.9869 57.9797 45.3459C57.9272 46.7049 57.5981 48.039 57.0124 49.2665C56.4268 50.4939 55.5969 51.589 54.5735 52.4848C53.5501 53.3806 52.3548 54.0582 51.0606 54.4762C49.7664 54.8942 48.4005 55.0438 47.0465 54.9159C45.6925 54.788 44.3788 54.3852 43.1858 53.7322C41.9928 53.0792 40.9455 52.1898 40.108 51.1182C39.2705 50.0466 38.6604 48.8154 38.315 47.5H27.685C27.1168 49.6941 25.8205 51.6303 24.0082 52.9915C22.196 54.3527 19.9753 55.0583 17.7097 54.9926C15.4442 54.927 13.268 54.0941 11.5376 52.6302C9.80727 51.1664 8.6252 49.1584 8.185 46.935C7.37483 46.5118 6.69616 45.8746 6.22278 45.0927C5.7494 44.3108 5.49941 43.414 5.5 42.5V17.5C5.5 16.837 5.76339 16.2011 6.23223 15.7322C6.70107 15.2634 7.33696 15 8 15H25.5C26.163 15 26.7989 15.2634 27.2678 15.7322C27.7366 16.2011 28 16.837 28 17.5V30C28 30.663 28.2634 31.2989 28.7322 31.7678C29.2011 32.2366 29.837 32.5 30.5 32.5H35.5C36.163 32.5 36.7989 32.2366 37.2678 31.7678C37.7366 31.2989 38 30.663 38 30V7.5H30.5V2.5H40.5ZM48 40C46.9367 40.0003 45.9012 40.3396 45.0439 40.9685C44.1866 41.5975 43.5521 42.4834 43.2326 43.4975C42.9131 44.5117 42.9252 45.6013 43.2671 46.608C43.6091 47.6148 44.2631 48.4864 45.1342 49.0962C46.0053 49.7059 47.048 50.0221 48.1111 49.9988C49.1741 49.9755 50.202 49.6139 51.0455 48.9666C51.8891 48.3193 52.5043 47.4199 52.8018 46.3991C53.0993 45.3782 53.0636 44.2892 52.7 43.29L52.6575 43.18C52.2913 42.2429 51.6508 41.438 50.8199 40.8707C49.9889 40.3034 49.0062 39.9999 48 40ZM18 40C16.6739 40 15.4021 40.5268 14.4645 41.4645C13.5268 42.4021 13 43.6739 13 45C13 46.3261 13.5268 47.5979 14.4645 48.5355C15.4021 49.4732 16.6739 50 18 50C19.3261 50 20.5979 49.4732 21.5355 48.5355C22.4732 47.5979 23 46.3261 23 45C23 43.6739 22.4732 42.4021 21.5355 41.4645C20.5979 40.5268 19.3261 40 18 40ZM23 20H10.5V25H23V20ZM50.5 12.5H43V17.5H50.5V12.5Z" fill="#292929"/>
</svg>
