<svg width="1180" height="121" viewBox="0 0 1180 121" fill="none" xmlns="http://www.w3.org/2000/svg">
<path d="M10.7016 0.000471407C4.81571 0.000471407 0 5.2036 0 11.563C0 17.9223 4.81571 23.1255 10.7016 23.1255H34.4484L48.4942 83.8282C50.87 94.1188 59.4098 101.172 69.2232 101.172L1147.23 101.172C1156.89 101.172 1165.08 94.2576 1167.63 84.1866L1180 25.7969H1159.6L1147.23 78.047L69.2232 78.0469L55.1773 17.3442C54.0199 12.3644 51.349 7.94834 47.5925 4.80363C43.8359 1.65893 39.2111 -0.0324413 34.4591 0.000471407H10.7016Z" fill="#FFC72C"/>
<path d="M155 101C155 89.9543 163.954 81 175 81C186.046 81 195 89.9543 195 101C195 112.046 186.046 121 175 121C163.954 121 155 112.046 155 101Z" fill="#FFC72C"/>
<path d="M165 101C165 106.523 169.477 111 175 111C180.523 111 185 106.523 185 101C185 95.4772 180.523 91 175 91C169.477 91 165 95.4772 165 101Z" fill="white"/>
<path d="M1021 101C1021 89.9543 1029.95 81 1041 81C1052.05 81 1061 89.9543 1061 101C1061 112.046 1052.05 121 1041 121C1029.95 121 1021 112.046 1021 101Z" fill="#FFC72C"/>
<path d="M1031 101C1031 95.4772 1035.48 91 1041 91C1046.52 91 1051 95.4772 1051 101C1051 106.523 1046.52 111 1041 111C1035.48 111 1031 106.523 1031 101Z" fill="white"/>
<path d="M155 101C155 89.9543 163.954 81 175 81C186.046 81 195 89.9543 195 101C195 112.046 186.046 121 175 121C163.954 121 155 112.046 155 101Z" fill="#FFC72C"/>
<path d="M165 101C165 95.4772 169.477 91 175 91C180.523 91 185 95.4772 185 101C185 106.523 180.523 111 175 111C169.477 111 165 106.523 165 101Z" fill="white"/>
</svg>
