<svg width="25" height="26" viewBox="0 0 25 26" fill="none" xmlns="http://www.w3.org/2000/svg">
<g filter="url(#filter0_d_97_231)">
<path d="M12.8274 6.35002L7.90238 1.42502C7.54673 1.094 7.0766 0.913743 6.59081 0.922135C6.10501 0.930527 5.64139 1.12691 5.29738 1.47002C4.95427 1.81403 4.75789 2.27765 4.74949 2.76345C4.7411 3.24924 4.92136 3.71937 5.25238 4.07502L10.1774 9.00002L5.25238 13.925C5.00619 14.1544 4.82634 14.4458 4.73175 14.7687C4.63717 15.0917 4.63134 15.4341 4.71488 15.76C4.79747 16.0865 4.9666 16.3848 5.20444 16.6232C5.44229 16.8617 5.74006 17.0316 6.06637 17.115C6.39268 17.1985 6.73545 17.1923 7.05857 17.0973C7.3817 17.0023 7.6732 16.8218 7.90238 16.575L12.8274 11.65L17.7524 16.575C17.9817 16.8212 18.2732 17.0011 18.5961 17.0956C18.919 17.1902 19.2614 17.1961 19.5874 17.1125C19.9139 17.0299 20.2121 16.8608 20.4506 16.623C20.6891 16.3851 20.8589 16.0873 20.9424 15.761C21.0258 15.4347 21.0197 15.092 20.9247 14.7688C20.8296 14.4457 20.6492 14.1542 20.4024 13.925L15.4774 9.00002L20.4024 4.07502C20.6486 3.84567 20.8284 3.55421 20.923 3.2313C21.0176 2.90839 21.0234 2.56596 20.9399 2.24002C20.8573 1.9135 20.6882 1.61529 20.4503 1.37682C20.2125 1.13836 19.9147 0.968455 19.5884 0.885022C19.2621 0.801589 18.9193 0.807712 18.5962 0.902748C18.2731 0.997783 17.9816 1.17821 17.7524 1.42502L12.8274 6.35002Z" fill="#DA291C"/>
</g>
<defs>
<filter id="filter0_d_97_231" x="0.65625" y="0.82666" width="24.3438" height="24.3467" filterUnits="userSpaceOnUse" color-interpolation-filters="sRGB">
<feFlood flood-opacity="0" result="BackgroundImageFix"/>
<feColorMatrix in="SourceAlpha" type="matrix" values="0 0 0 0 0 0 0 0 0 0 0 0 0 0 0 0 0 0 127 0" result="hardAlpha"/>
<feOffset dy="4"/>
<feGaussianBlur stdDeviation="2"/>
<feComposite in2="hardAlpha" operator="out"/>
<feColorMatrix type="matrix" values="0 0 0 0 0 0 0 0 0 0 0 0 0 0 0 0 0 0 0.25 0"/>
<feBlend mode="normal" in2="BackgroundImageFix" result="effect1_dropShadow_97_231"/>
<feBlend mode="normal" in="SourceGraphic" in2="effect1_dropShadow_97_231" result="shape"/>
</filter>
</defs>
</svg>
